<?xml version="1.0" encoding="UTF-8" standalone="no" ?>
<!DOCTYPE svg PUBLIC "-//W3C//DTD SVG 1.1//EN" "http://www.w3.org/Graphics/SVG/1.1/DTD/svg11.dtd">
<svg xmlns="http://www.w3.org/2000/svg" xmlns:xlink="http://www.w3.org/1999/xlink" version="1.1" width="640" height="640" viewBox="0 0 640 640" xml:space="preserve">
<desc>Created with Fabric.js 4.6.0</desc>
<defs>
</defs>
<g transform="matrix(31.71 0 0 31.67 320 320)" id="z3G334ioL9tRpsJ8gpvQS"  >
<path style="stroke: none; stroke-width: 1; stroke-dasharray: none; stroke-linecap: butt; stroke-dashoffset: 0; stroke-linejoin: miter; stroke-miterlimit: 4; fill: rgb(255,255,255); fill-rule: nonzero; opacity: 1;" vector-effect="non-scaling-stroke"  transform=" translate(-12, -12)" d="M 12 2 C 17.5228475 2 22 6.4771525 22 12 C 22 17.5228475 17.5228475 22 12 22 C 6.4771525 22 2 17.5228475 2 12 C 2 6.4771525 6.4771525 2 12 2 Z M 7.46966991 9.96966991 C 7.1767767 10.2625631 7.1767767 10.7374369 7.46966991 11.0303301 L 11.4696699 15.0303301 C 11.7625631 15.3232233 12.2374369 15.3232233 12.5303301 15.0303301 L 16.5303301 11.0303301 C 16.8232233 10.7374369 16.8232233 10.2625631 16.5303301 9.96966991 C 16.2374369 9.6767767 15.7625631 9.6767767 15.4696699 9.96966991 L 12 13.4393398 L 8.53033009 9.96966991 C 8.23743687 9.6767767 7.76256313 9.6767767 7.46966991 9.96966991 Z" stroke-linecap="round" />
</g>
</svg>